<?xml version="1.0" encoding="UTF-8"?>
<svg width="83px" height="111px" viewBox="0 0 83 111" version="1.1" xmlns="http://www.w3.org/2000/svg" xmlns:xlink="http://www.w3.org/1999/xlink">
    <!-- Generator: Sketch 55.2 (78181) - https://sketchapp.com -->
    <title>Group 27</title>
    <desc>Created with Sketch.</desc>
    <defs>
        <path d="M14.4315,13.2332083 L14.4315,15.7001458 L6.16459091,15.7001458 C5.51168182,15.7001458 4.93118182,16.2090208 4.85877273,16.8629375 L4.85877273,16.8629375 L0.508090909,57.4635417 C0.435681818,57.8236875 0.579272727,58.18875 0.798954545,58.4800625 L0.798954545,58.4800625 C1.01495455,58.7689167 1.37822727,58.9151875 1.7415,58.9151875 L1.7415,58.9151875 L52.1394545,58.9151875 C52.5015,58.9151875 52.866,58.7689167 53.082,58.4800625 L53.082,58.4800625 C53.2992273,58.18875 53.4452727,57.8236875 53.3728636,57.4635417 L53.3728636,57.4635417 L49.0221818,16.8629375 C48.9497727,16.2090208 48.3692727,15.7001458 47.7163636,15.7001458 L47.7163636,15.7001458 L39.6666818,15.7001458 L39.6666818,13.2332083 C39.6666818,6.25891667 34.0114091,0.594916667 27.0478636,0.594916667 L27.0478636,0.594916667 C20.0867727,0.594916667 14.4315,6.25891667 14.4315,13.2332083 M17.0419091,13.2332083 C17.0419091,7.7105625 21.5386364,3.208125 27.0478636,3.208125 L27.0478636,3.208125 C32.5595455,3.208125 37.0562727,7.7105625 37.0562727,13.2332083 L37.0562727,13.2332083 L37.0562727,15.7001458 L17.0419091,15.7001458 M41.8426364,24.1260833 C41.8426364,22.5269375 40.8264545,21.1478125 39.3770455,20.6389375 L39.3770455,20.6389375 L39.3770455,18.2432917 L46.7750455,18.2432917 L50.8348636,56.2282292 L3.26454545,56.2282292 L7.32436364,18.2432917 L14.4315,18.2432917 L14.4315,20.6389375 C12.9808636,21.1478125 11.9659091,22.5269375 11.9659091,24.1260833 L11.9659091,24.1260833 C11.9659091,26.159125 13.6337727,27.8307917 15.6636818,27.8307917 L15.6636818,27.8307917 C17.6948182,27.8307917 19.3626818,26.159125 19.3626818,24.1260833 L19.3626818,24.1260833 C19.3626818,22.5269375 18.3477273,21.1478125 16.8958636,20.6389375 L16.8958636,20.6389375 L16.8958636,18.2432917 L36.9114545,18.2432917 L36.9114545,20.6389375 C35.4620455,21.1478125 34.4470909,22.5269375 34.4470909,24.1260833 L34.4470909,24.1260833 C34.4470909,26.159125 36.1137273,27.8307917 38.1436364,27.8307917 L38.1436364,27.8307917 C40.1735455,27.8307917 41.8426364,26.159125 41.8426364,24.1260833 M38.1597727,23 C38.8114545,23 39.3183182,23.5101042 39.3183182,24.1627917 C39.3183182,24.8154792 38.8114545,25.3243542 38.1597727,25.3243542 C37.5068636,25.3243542 37,24.8154792 37,24.1627917 C37,23.5101042 37.5068636,23 38.1597727,23 Z M14.5775455,24.1986042 C14.5775455,23.5459167 15.0844091,23.0358125 15.7373182,23.0358125 C16.389,23.0358125 16.8958636,23.5459167 16.8958636,24.1986042 C16.8958636,24.8512917 16.389,25.3601667 15.7373182,25.3601667 C15.0844091,25.3601667 14.5775455,24.8512917 14.5775455,24.1986042 Z" id="path-1"></path>
    </defs>
    <g id="Chrome-Extension" stroke="none" stroke-width="1" fill="none" fill-rule="evenodd">
        <g id="Reel-Extension---White-listed-Page" transform="translate(-1129.000000, -146.000000)">
            <g id="Group-2" transform="translate(1020.000000, 146.000000)">
                <g id="Group-27" transform="translate(109.000000, 0.000000)">
                    <g id="Group-23">
                        <path d="M65.4113125,44 C71.1610279,44 75.822625,48.6334091 75.822625,54.3483566 C75.822625,60.0633042 71.1610279,64.6967133 65.4113125,64.6967133 C59.6615972,64.6967133 55,60.0633042 55,54.3483566 C55,48.6334091 59.6615972,44 65.4113125,44" id="Fill-1" fill="#4A1A38"></path>
                        <path d="M30.4952537,110.475454 L30.4952537,91.7439451 L16.3509539,77.6950063 C16.3509539,77.6950063 12.8417728,83.182585 16.3509539,87.0613752 L21.7235374,92.6583367 C22.29109,93.2236864 22.6434919,94.0041147 22.6434919,94.8656584 C22.6434919,96.5899748 21.2375937,97.9873717 19.5015506,97.9873717 C18.6347656,97.9873717 17.8495894,97.6383297 17.2808004,97.0742091 L8.50908411,88.6222318 L8.50908411,74.573293 C8.50908411,69.6781024 3.8697439,68.3298664 2.22767466,68.3298664 L2.22767466,93.3048017 L13.2201412,105.791655 L13.2201412,110.475454" id="Stroke-3" stroke="#000000" stroke-width="2.5"></path>
                        <path d="M70.4990527,110.475454 L70.4990527,105.71054 L81.6831764,93.0061497 L81.6831764,67.5961409 C80.0126677,67.5961409 75.2917187,68.9677283 75.2917187,73.9489503 L75.2917187,88.2412353 L66.3679132,96.8394661 C65.7892321,97.4146479 64.9904545,97.769835 64.1088315,97.769835 C62.3431124,97.769835 60.9124843,96.3490867 60.9124843,94.5940448 C60.9124843,93.7165238 61.2698322,92.9238052 61.8485132,92.3486234 L67.3150706,86.6533402 C70.8848401,82.7081829 67.3150706,77.1247406 67.3150706,77.1247406 L52.9234712,91.4182545 L52.9234712,110.475454" id="Stroke-5" stroke="#000000" stroke-width="2.5"></path>
                        <path d="M22.9500197,18.2988804 C35.583319,18.2988804 45.8252313,28.4788612 45.8252313,41.0357685 C45.8252313,53.5926759 35.583319,63.7726566 22.9500197,63.7726566 C10.3167204,63.7726566 0.0748081243,53.5926759 0.0748081243,41.0357685 C0.0748081243,28.4788612 10.3167204,18.2988804 22.9500197,18.2988804" id="Fill-7" fill="#E89D81"></path>
                        <path d="M42.7339865,0.257344056 L42.7339865,7.63146993" id="Stroke-9" stroke="#000000" stroke-width="2.3"></path>
                        <path d="M28.8233848,3.55062867 L32.9965653,9.93662168" id="Stroke-11" stroke="#000000" stroke-width="2.3"></path>
                        <path d="M18.6404535,12.5475538 L25.8690203,16.2346168" id="Stroke-13" stroke="#000000" stroke-width="2.3"></path>
                        <path d="M14.9127832,24.8377636 L23.2591442,24.8377636" id="Stroke-15" stroke="#000000" stroke-width="2.3"></path>
                        <path d="M56.6445881,3.55062867 L52.4714076,9.93662168" id="Stroke-17" stroke="#000000" stroke-width="2.3"></path>
                        <path d="M66.8276431,12.5475538 L59.6003127,16.2346168" id="Stroke-19" stroke="#000000" stroke-width="2.3"></path>
                        <path d="M70.5551897,24.8377636 L62.2088287,24.8377636" id="Stroke-21" stroke="#000000" stroke-width="2.3"></path>
                    </g>
                    <g id="Group-26" transform="translate(16.000000, 14.000000)">
                        <mask id="mask-2" fill="white">
                            <use xlink:href="#path-1"></use>
                        </mask>
                        <use id="Clip-25" fill="#D8D8D8" xlink:href="#path-1"></use>
                        <polygon id="Fill-24" fill="#000000" mask="url(#mask-2)" points="-11.1853636 70.60825 65.0675455 70.60825 65.0675455 -11.099375 -11.1853636 -11.099375"></polygon>
                    </g>
                </g>
            </g>
        </g>
    </g>
</svg>