<?xml version="1.0" encoding="UTF-8"?>
<svg viewBox="0 0 141 65" version="1.1" xmlns="http://www.w3.org/2000/svg" xmlns:xlink="http://www.w3.org/1999/xlink">
  <defs></defs>
  <g id="Edits" stroke="none" stroke-width="1" fill="none" fill-rule="evenodd">
    <g id="Welcome" transform="translate(-117.000000, -69.000000)" fill="#000000">
      <g id="Reel-Logo" transform="translate(117.000000, 69.000000)">
        <path d="M0,23.0244053 L10.1629106,23.0244053 L10.1629106,29.5122368 L10.3322602,29.5122368 C11.4609859,27.1219237 13.0701635,25.2732725 15.1595892,23.9634092 C17.2477929,22.6548803 19.6482191,22 22.3583218,22 C22.9788969,22 23.5863355,22.057379 24.17911,22.1708026 C24.7719863,22.285458 25.3779992,22.426904 26,22.597604 L26,32.4999487 C25.1530484,32.2732041 24.3194369,32.0878257 23.5016098,31.945148 C22.6824587,31.8037021 21.8779718,31.7317474 21.0879452,31.7317474 C18.7165417,31.7317474 16.8110278,32.173227 15.3713017,33.054852 C13.9315755,33.9379139 12.8306504,34.9476409 12.0684245,36.0853671 C11.3061985,37.2244277 10.7980479,38.3622566 10.5439726,39.4999829 C10.2898973,40.6390435 10.1629106,41.4927488 10.1629106,42.0609961 L10.1629106,64 L0,64 L0,23.0244053 Z" id="Fill-1"></path>
        <path d="M59.8765708,39.4048474 C59.8198662,36.3907141 58.8919005,34.0164212 57.0925719,32.2807376 C55.2920261,30.5463876 52.7901297,29.6785971 49.5843467,29.6785971 C46.5473585,29.6785971 44.1429452,30.5610577 42.371411,32.3234141 C40.5997753,34.0871042 39.5163033,36.4479581 39.1234292,39.4048474 L59.8765708,39.4048474 Z M39.1234292,47.0834445 C39.4609175,50.1548217 40.6419741,52.5436821 42.6667005,54.2500256 C44.6913255,55.9563692 47.1378361,56.8094896 50.0061309,56.8094896 C52.5370389,56.8094896 54.6592484,56.2843425 56.3754982,55.2311757 C58.0904293,54.1794452 59.5944683,52.8569854 60.888934,51.2640015 L68.143967,56.8094896 C65.7819552,59.7677125 63.1376381,61.8726098 60.214059,63.1230529 C57.2890597,64.3734961 54.2242771,65 51.0184941,65 C47.9815059,65 45.1131097,64.4881893 42.4136097,63.4642601 C39.7140083,62.440536 37.3794865,60.9901492 35.4114646,59.1130995 C33.4422254,57.2361524 31.8814819,54.9752191 30.7294369,52.330402 C29.5759718,49.685585 29,46.7420321 29,43.5000513 C29,40.2579679 29.5759718,37.3145176 30.7294369,34.6697006 C31.8814819,32.0248835 33.4422254,29.7638476 35.4114646,27.8869005 C37.3794865,26.0099534 39.7140083,24.5595666 42.4136097,23.5357399 C45.1131097,22.5119133 47.9815059,22 51.0184941,22 C53.8301858,22 56.4031911,22.4985769 58.7376114,23.4930634 C61.0708145,24.4888835 63.067848,25.9246003 64.7273933,27.80165 C66.3856199,29.6785971 67.6799841,31.996877 68.6080513,34.7549511 C69.5360171,37.5144613 70,40.6846307 70,44.2678187 L70,47.0834445 L39.1234292,47.0834445 Z" id="Fill-3"></path>
        <path d="M105.876494,39.4048474 C105.81979,36.3907141 104.891928,34.0164212 103.092604,32.2807376 C101.292063,30.5463876 98.7901723,29.6785971 95.5843972,29.6785971 C92.5474165,29.6785971 90.1430091,30.5610577 88.3714793,32.3234141 C86.5998481,34.0871042 85.5162772,36.4479581 85.1235056,39.4048474 L105.876494,39.4048474 Z M85.1235056,47.0834445 C85.4608916,50.1548217 86.6420467,52.5436821 88.6666667,54.2500256 C90.6913881,55.9563692 93.1378926,56.8094896 96.0061804,56.8094896 C98.5369807,56.8094896 100.659185,56.2843425 102.375532,55.2311757 C104.090459,54.1794452 105.594494,52.8569854 106.888855,51.2640015 L114.144073,56.8094896 C111.781864,59.7677125 109.137655,61.8726098 106.213982,63.1230529 C103.28899,64.3734961 100.224215,65 97.0185411,65 C93.9814589,65 91.1131712,64.4881893 88.4136779,63.4642601 C85.7139818,62.440536 83.3795672,60.9901492 81.4115502,59.1130995 C79.4422144,57.2361524 77.8814748,54.9752191 76.7294326,52.330402 C75.5760718,49.685585 75,46.7420321 75,43.5000513 C75,40.2579679 75.5760718,37.3145176 76.7294326,34.6697006 C77.8814748,32.0248835 79.4422144,29.7638476 81.4115502,27.8869005 C83.3795672,26.0099534 85.7139818,24.5595666 88.4136779,23.5357399 C91.1131712,22.5119133 93.9814589,22 97.0185411,22 C99.8301244,22 102.403225,22.4985769 104.737639,23.4930634 C107.070735,24.4888835 109.067764,25.9246003 110.727305,27.80165 C112.385629,29.6785971 113.680091,31.996877 114.607953,34.7549511 C115.536018,37.5144613 116,40.6846307 116,44.2678187 L116,47.0834445 L85.1235056,47.0834445 Z" id="Fill-5"></path>
        <polygon id="Fill-7" points="0.281540574 40.2758483 115.436817 40 116 47.4482038 0 48"></polygon>
        <polygon id="Fill-9" points="130.911504 0 141 0 132.088496 64 122 64"></polygon>
      </g>
    </g>
  </g>
</svg>