<svg width="9" height="13" viewBox="0 0 9 13" fill="none" xmlns="http://www.w3.org/2000/svg">
<path fill-rule="evenodd" clip-rule="evenodd" d="M6.10909 0.00690318C5.57319 0.0701032 5.18349 0.172285 4.03636 0.55037C2.68497 0.995801 2.07622 1.11527 1.4559 1.05677C0.940776 1.00821 0.453042 0.788794 0.146764 0.467825C0.0511273 0.367606 0 0.356116 0 0.434831C0 0.523582 0.0675152 0.849813 0.109624 0.964722C0.131103 1.02329 0.155151 1.09301 0.163079 1.11968C0.206158 1.26463 0.46206 1.71236 0.627879 1.93299C0.854788 2.2349 1.33581 2.7095 1.62892 2.92067C1.83413 3.06853 1.84 3.07549 1.85328 3.187C1.90313 3.60591 2.07811 4.51125 2.20572 5.01059C2.23467 5.12392 2.2689 5.36392 2.28177 5.54392C2.31309 5.98184 2.31302 5.98388 2.25333 6.32252C2.22788 6.46703 2.2401 6.53787 2.29055 6.53787C2.34463 6.53787 2.37171 6.48058 2.39956 6.3071C2.44611 6.01738 2.4401 6.03074 2.5151 6.05074C2.57806 6.06754 2.58281 6.07869 2.59942 6.24865C2.63375 6.59973 2.67256 6.76991 2.76262 6.9639C2.98548 7.44405 3.46999 7.71457 3.95673 7.63064C4.38674 7.55648 4.76914 7.27212 4.96492 6.88097C5.01988 6.77117 5.07212 6.6409 5.08104 6.59144C5.10734 6.44538 5.1175 6.4409 5.42167 6.4409C5.73387 6.4409 5.69634 6.41563 5.78204 6.68332C5.85001 6.89561 5.96019 7.07132 6.13241 7.24194C6.30691 7.41484 6.44301 7.50097 6.6608 7.57634C6.96904 7.68301 7.23838 7.66742 7.53939 7.5255C7.9409 7.33619 8.21663 6.83985 8.21777 6.30446C8.21808 6.15338 8.22727 6.0999 8.25716 6.07508C8.31888 6.02385 8.35454 6.09816 8.37069 6.31166C8.38031 6.43867 8.39925 6.51728 8.43023 6.55879C8.54839 6.71704 8.59234 6.61896 8.53222 6.3312C8.47779 6.07067 8.47438 5.91677 8.52121 5.83483C8.56948 5.75042 8.56727 5.57059 8.51733 5.51539C8.48119 5.47544 8.48019 5.44933 8.50756 5.25893C8.55627 4.92051 8.62463 4.63677 8.73961 4.29607L8.84679 3.97849L8.85239 3.15515C8.85855 2.2496 8.84376 2.0773 8.72565 1.67726C8.54848 1.07723 8.23527 0.659631 7.73188 0.352309C7.53622 0.232867 7.20286 0.102103 6.96836 0.0528183C6.78114 0.0134728 6.28034 -0.0132908 6.10909 0.00690318ZM8.29358 3.61151C8.32931 3.71345 8.39726 3.86606 8.44458 3.95066L8.53059 4.10448L8.46274 4.32119C8.37971 4.5863 8.31811 4.93893 8.29566 5.27726L8.27879 5.5318L7.97234 5.60897C6.91661 5.87481 5.8592 5.99047 4.99712 5.9344C4.1999 5.88254 3.6639 5.80026 2.84616 5.60424C2.4472 5.5086 2.4825 5.54378 2.46545 5.22472C2.45188 4.97071 2.40109 4.68654 2.35338 4.59767C2.29353 4.48615 2.3031 4.28739 2.38659 3.90756C2.4185 3.76249 2.51462 3.48332 2.53265 3.48332C2.53585 3.48332 2.64097 3.53706 2.76621 3.60276C3.33867 3.90305 4.08878 4.12739 4.88485 4.23641C5.1969 4.27915 5.94187 4.27289 6.26667 4.2248C7.01973 4.11328 7.64747 3.86875 8.02434 3.54004C8.10737 3.46766 8.18727 3.41241 8.20194 3.41731C8.21661 3.42218 8.25784 3.50957 8.29358 3.61151ZM2.53236 7.64533C2.4984 7.67927 2.49425 7.71481 2.50764 7.85745C2.52861 8.08143 2.61062 8.6503 2.64415 8.80453C2.84286 9.71845 3.07522 10.2469 3.49054 10.7294C3.72414 11.0008 3.96747 11.167 4.48485 11.4083C4.86373 11.5851 5.02839 11.6864 5.2 11.8482C5.28 11.9237 5.4 12.017 5.46667 12.0556C5.57474 12.1181 5.6105 12.1257 5.79627 12.1257C5.93658 12.1257 6.01767 12.115 6.04448 12.0927C6.09273 12.0527 6.07564 12.0167 6.00836 12.0167C5.98121 12.0167 5.92732 11.9941 5.88858 11.9665C5.81396 11.9134 5.79479 11.8147 5.84196 11.7266C5.87113 11.6721 6.11879 11.5169 6.31515 11.43C6.72725 11.2477 6.80642 11.208 6.9545 11.1093C7.63205 10.6577 8.07605 9.7967 8.28051 8.53787C8.29784 8.4312 8.33084 8.19871 8.35387 8.02124C8.3951 7.70339 8.39501 7.69784 8.34776 7.65062C8.25319 7.55605 8.16982 7.66945 8.16958 7.89299C8.16938 8.06046 8.0817 8.55202 7.99855 8.852C7.86344 9.33927 7.68068 9.65023 7.39925 9.87166C7.1487 10.0688 6.7519 10.2455 6.39559 10.3184C6.2175 10.3549 6.08053 10.3202 5.97115 10.2108C5.82875 10.0684 5.87772 9.96885 6.13925 9.86899C6.46824 9.74339 6.83636 9.48036 6.83636 9.37091C6.83636 9.3063 6.78475 9.3145 6.59728 9.4089C6.40895 9.50376 6.18373 9.56817 6.04044 9.56817C5.98652 9.56817 5.8681 9.55069 5.77726 9.52936C5.57838 9.48259 5.33081 9.48373 5.12128 9.53232C4.8279 9.60036 4.6089 9.56943 4.29961 9.41627C4.07319 9.30415 3.99959 9.30473 4.05825 9.41818C4.12621 9.54955 4.43387 9.75244 4.74807 9.87304C4.96177 9.95508 5.01508 10.0162 4.96931 10.1267C4.9305 10.2204 4.84388 10.2883 4.72107 10.3214C4.59784 10.3545 4.34553 10.3029 4.03995 10.182C3.64543 10.0259 3.35782 9.81316 3.16822 9.53724C2.96061 9.23505 2.78657 8.62996 2.71345 7.95605C2.6889 7.72965 2.64676 7.60453 2.5951 7.60453C2.58303 7.60453 2.55481 7.62288 2.53236 7.64533ZM3.14344 8.27525C3.05013 8.36853 3.46611 8.80441 3.82065 8.98487C4.19062 9.17319 4.47712 9.17661 4.8736 8.99748C5.19646 8.85161 5.3256 8.81731 5.55316 8.81695C5.76858 8.81661 5.91202 8.85544 6.24005 9.00286C6.63118 9.17864 6.89241 9.17307 7.27985 8.98066C7.43952 8.90136 7.52545 8.83544 7.71515 8.64674C7.91423 8.4487 7.95151 8.39961 7.95151 8.33535C7.95151 8.23675 7.90822 8.23651 7.76613 8.33425C7.60943 8.44209 7.28672 8.58672 7.10148 8.63217C6.90858 8.67949 6.62417 8.68259 6.45692 8.6392C6.38909 8.62162 6.22582 8.54601 6.09406 8.47122C5.80693 8.30819 5.64858 8.27076 5.40846 8.30911C5.31258 8.32444 5.19527 8.36495 5.11522 8.41035C4.73893 8.62388 4.65867 8.6535 4.42284 8.66584C4.07471 8.68405 3.66223 8.55811 3.3369 8.33425C3.22912 8.2601 3.17505 8.24361 3.14344 8.27525Z" fill="black"/>
</svg>
